# xmcd
# 
# Track frame offsets:
#     150
#     16372
#     37580
#     57360
#     76250
#     91915
#     107935
#     130370
#     150900
#     173477
#     197732
#     213642
#     231585
#     254435
#     270192
# 
# Disc length: 3816
# 
# Revision: 1
# Processed by: cddbd v1.5.2PL0 Copyright (c) Steve Scherf et al.
# Submitted via: BonkEnc v1.0.5
# 
DISCID=bd0ee60f
DTITLE=小林　桂 - Nature Boy
DYEAR=2004
DGENRE=Jazz
TTITLE0=AS LONG AS I LIVE
TTITLE1=IF I HAD YOU
TTITLE2=CALL ME
TTITLE3=I FALL IN LOVE TOO EASILY
TTITLE4=A FOGGY DAY
TTITLE5=HOW ABOUT YOU?
TTITLE6=BODY AND SOUL
TTITLE7=STOMPIN' AT THE SAVOY
TTITLE8=NATURE BOY
TTITLE9=THEY CAN'T TAKE AWAY FROM ME
TTITLE10=NA-GA-SHI-ME PLAY
TTITLE11=THE SHADOW OF YOUR SMLE
TTITLE12=WHAT A WONDERFUL WORLD
TTITLE13=BEYOND THE SEA
TTITLE14=NA-GA-SHI-ME PLAY(CM version album mix)
EXTD=YEAR: 2004
EXTT0=
EXTT1=
EXTT2=
EXTT3=
EXTT4=
EXTT5=
EXTT6=
EXTT7=
EXTT8=
EXTT9=
EXTT10=
EXTT11=
EXTT12=
EXTT13=
EXTT14=
PLAYORDER=
